<?xml version="1.0" encoding="UTF-8" standalone="no"?>
<!-- Created with Inkscape (http://www.inkscape.org/) -->

<svg
   xmlns:dc="http://purl.org/dc/elements/1.1/"
   xmlns:cc="http://creativecommons.org/ns#"
   xmlns:rdf="http://www.w3.org/1999/02/22-rdf-syntax-ns#"
   xmlns:svg="http://www.w3.org/2000/svg"
   xmlns="http://www.w3.org/2000/svg"
   xmlns:sodipodi="http://sodipodi.sourceforge.net/DTD/sodipodi-0.dtd"
   xmlns:inkscape="http://www.inkscape.org/namespaces/inkscape"
   width="210mm"
   height="297mm"
   id="svg2"
   version="1.1"
   inkscape:version="0.48.4 r9939"
   sodipodi:docname="LR23.svg">
  <defs
     id="defs4" />
  <sodipodi:namedview
     id="base"
     pagecolor="#ffffff"
     bordercolor="#666666"
     borderopacity="1.0"
     inkscape:pageopacity="0.0"
     inkscape:pageshadow="2"
     inkscape:zoom="3.959798"
     inkscape:cx="386.08602"
     inkscape:cy="713.61592"
     inkscape:document-units="px"
     inkscape:current-layer="layer1"
     showgrid="false"
     inkscape:window-width="1869"
     inkscape:window-height="1056"
     inkscape:window-x="51"
     inkscape:window-y="864"
     inkscape:window-maximized="1" />
  <metadata
     id="metadata7">
    <rdf:RDF>
      <cc:Work
         rdf:about="">
        <dc:format>image/svg+xml</dc:format>
        <dc:type
           rdf:resource="http://purl.org/dc/dcmitype/StillImage" />
        <dc:title></dc:title>
      </cc:Work>
    </rdf:RDF>
  </metadata>
  <g
     inkscape:label="Capa 1"
     inkscape:groupmode="layer"
     id="layer1">
    <g
       style="font-size:77.76763916px;font-style:normal;font-variant:normal;font-weight:normal;font-stretch:normal;line-height:125%;letter-spacing:0px;word-spacing:0px;fill:#000000;fill-opacity:1;stroke:none;font-family:StarJedi Special Edition;-inkscape-font-specification:StarJedi Special Edition"
       id="text2985">
      <path
         d="m -90.438601,21.90115 0,-38.504095 -11.391739,0 0,-16.328166 29.238805,0 0,38.5040943 29.694479,0 0,16.3281667 -47.541545,0"
         style=""
         id="path2990" />
      <path
         d="m -40.618708,21.90115 0.07594,-32.808223 33.5676726,0 c 0.7594129,3.3e-5 1.5441767,-0.164514 2.3542937,-0.493642 0.8100405,-0.329061 1.2657098,-1.075853 1.3670093,-2.240377 -0.1012995,-1.215082 -0.5949412,-2.012503 -1.4809267,-2.392266 -0.8860618,-0.379686 -1.6581682,-0.569549 -2.3163213,-0.569587 l -35.8460216,0 0,-16.328166 37.9724805,0 c 4.40476529,0.379779 8.0248048,1.632869 10.8601293,3.759275 2.8352268,2.101193 4.9110532,4.923811 6.2274872,8.467863 1.012543,5.29087 1.063173,9.379236 0.151889,12.2651112 -0.911393,2.8859359 -2.506236,5.2908573 -4.7845321,7.2147712 C 5.252,0.69986958 3.8343621,1.8010704 3.2774792,2.0795152 2.7205038,2.3326846 2.3154645,2.737724 2.0623598,3.2946345 2.2142046,4.2566217 3.8343621,5.0160705 6.9228373,5.5729833 l 24.1504977,0 0,16.3281667 -25.9731768,0 C -2.7981577,22.05304 -9.0509532,19.622803 -13.658247,14.610434 l -7.138826,-7.5185515 0,14.8092675 -19.821635,0"
         style=""
         id="path2992" />
      <path
         d="m 38.288105,8.6867267 22.213901,0 0,13.2144233 -42.908902,0 0,-15.4168272 C 23.567433,3.4971728 28.85826,0.52266486 33.4656,-2.43921 c 2.303644,-1.5948182 4.113664,-3.1643458 5.430065,-4.7085875 1.34167,-1.5441836 2.012517,-3.3415455 2.012541,-5.3920925 -2.4e-5,-2.632721 -0.97465,-4.556658 -2.923881,-5.771817 -1.949274,-1.240393 -4.341537,-1.860609 -7.176798,-1.860651 -4.480763,4.2e-5 -8.5185,0.772148 -12.113221,2.316321 l 0,-14.277652 c 2.885903,-0.531561 5.746493,-0.949257 8.58178,-1.253092 2.835265,-0.303724 5.695855,-0.455614 8.581781,-0.45567 6.961594,5.6e-5 12.80935,1.367064 17.543285,4.101028 4.733861,2.734067 7.10081,7.354048 7.100854,13.859955 -4.4e-5,2.961888 -0.670891,5.683247 -2.012541,8.1640833 -1.316421,2.4808958 -3.025181,4.6832975 -5.126285,6.6072115 -2.101179,1.89864515 -4.265608,3.5314602 -6.493294,4.89845 -2.227748,1.367026 -5.088338,2.9492111 -8.581781,4.74656 l 0,0.1518899"
         style=""
         id="path2994" />
      <path
         d="m 70.526731,0.37075356 0,-11.99930356 c 1.974559,0.101293 3.430169,0.151923 4.366836,0.15189 1.772034,3.3e-5 3.366877,-0.07591 4.784532,-0.227835 1.41762,-0.151856 2.708683,-0.569553 3.873193,-1.253092 1.164467,-0.683469 1.746711,-1.73404 1.746734,-3.151716 -2.3e-5,-1.999844 -0.772129,-3.417482 -2.316321,-4.252918 -1.544234,-0.860666 -3.417541,-1.29102 -5.619927,-1.291064 -2.202417,4.4e-5 -4.480764,0.215221 -6.835047,0.645532 -2.328984,0.430398 -4.430126,0.936697 -6.303431,1.518899 l 0,-12.265111 c 2.404919,-0.759395 5.06299,-1.291009 7.974221,-1.594844 2.91121,-0.329039 6.214812,-0.493586 9.910817,-0.493642 2.835256,5.6e-5 5.607244,0.27852 8.315973,0.835395 2.708673,0.556984 5.227511,1.443007 7.556524,2.658073 2.328945,1.189856 4.189585,2.784698 5.581955,4.784533 1.4176,1.999929 2.12641,4.366878 2.12646,7.100853 -5e-5,6.227521 -3.48085,10.35386 -10.442434,12.3790289 l 0,0.15189 c 7.467884,1.9492798 11.201834,6.17687838 11.201884,12.6828083 -5e-5,3.7466298 -1.16454,6.8223968 -3.49347,9.2273128 -2.3037,2.404927 -5.265553,4.151659 -8.885561,5.240202 -3.620071,1.088544 -7.467946,1.632816 -11.543634,1.632817 -3.113761,-1e-6 -6.430021,-0.215178 -9.94879,-0.645532 -3.493475,-0.40504 -6.455325,-0.949312 -8.88556,-1.632817 l 0,-12.7587534 c 1.772046,0.6075732 3.91116,1.1391874 6.417349,1.5948442 2.531488,0.4556818 4.949067,0.6835162 7.252744,0.6835042 2.759315,1.2e-5 4.89843,-0.3417397 6.417349,-1.0252565 1.544191,-0.7088061 2.316297,-1.9998691 2.316321,-3.873193 -2.4e-5,-2.0758101 -0.898705,-3.4934479 -2.696046,-4.25291774 -1.772068,-0.75942788 -3.835238,-1.1391523 -6.189514,-1.1391744 -1.594858,2.21e-5 -3.822574,0.18988431 -6.683157,0.5695872"
         style=""
         id="path2996" />
    </g>
    <text
       xml:space="preserve"
       style="font-size:40px;font-style:normal;font-variant:normal;font-weight:normal;font-stretch:normal;line-height:125%;letter-spacing:0px;word-spacing:0px;fill:#000000;fill-opacity:1;stroke:none;font-family:StarJedi Special Edition;-inkscape-font-specification:StarJedi Special Edition"
       x="20"
       y="2.3621821"
       id="text3027"
       sodipodi:linespacing="125%"><tspan
         sodipodi:role="line"
         id="tspan3029"
         x="20"
         y="2.3621821"> </tspan></text>
    <text
       xml:space="preserve"
       style="font-size:40px;font-style:normal;font-variant:normal;font-weight:normal;font-stretch:normal;line-height:125%;letter-spacing:0px;word-spacing:0px;fill:#000000;fill-opacity:1;stroke:none;font-family:StarJedi Special Edition;-inkscape-font-specification:StarJedi Special Edition"
       x="260"
       y="298.07648"
       id="text3031"
       sodipodi:linespacing="125%"><tspan
         sodipodi:role="line"
         id="tspan3033"
         x="260"
         y="298.07648"
         style="-inkscape-font-specification:OpenSymbol;font-family:OpenSymbol;font-weight:normal;font-style:normal;font-stretch:normal;font-variant:normal">LR23</tspan></text>
  </g>
</svg>
